<svg xmlns="http://www.w3.org/2000/svg" width="506" height="87" viewBox="0 0 506 87">
  <g fill="none" transform="translate(5 3)">
    <g transform="translate(0 9)">
      <polygon fill="#3C97D3" points="194.8 4.8 198 1.2 225 30.9 198 60.7 194.8 57.1 218.5 30.9"/>
      <polygon fill="#26B891" points="6.6 30.9 30.3 57.1 27.1 60.7 .1 30.9 27.1 1.2 30.3 4.8"/>
      <rect width="5" height="63.703" x="158.086" y="-.658" fill="#EE4095" transform="rotate(21.665 160.586 31.193)"/>
      <g fill="#232323" transform="translate(53 1)">
        <path d="M42.8 6L40.3 1.8 40.3 1.8C39.6.5 38.6.5 37.8.5L32.7.5C31.9.5 31.4 1.3 31.8 2L34.3 6.2C35 7.5 36 7.5 36.8 7.5L41.9 7.5C42.7 7.5 43.2 6.7 42.8 6zM56.1 6L53.6 1.8 53.6 1.8C52.9.5 51.9.5 51.1.5L46 .5C45.2.5 44.7 1.3 45.1 2L47.6 6.2C48.3 7.5 49.3 7.5 50.1 7.5L55.2 7.5C56 7.5 56.5 6.7 56.1 6zM63 17.9L60.5 13.7 60.5 13.7C59.8 12.4 58.8 12.4 58 12.4L52.9 12.4C52.1 12.4 51.6 13.2 52 13.9L54.5 18.1C55.2 19.4 56.2 19.4 57 19.4L62.1 19.4C62.9 19.4 63.3 18.5 63 17.9zM49.7 17.9L47.2 13.7 47.2 13.7C46.5 12.4 45.5 12.4 44.7 12.4L39.6 12.4C38.8 12.4 38.3 13.2 38.7 13.9L41.2 18.1C41.9 19.4 42.9 19.4 43.7 19.4L48.8 19.4C49.6 19.4 50.1 18.5 49.7 17.9zM36.6 17.9L34.1 13.7 34.1 13.7C33.4 12.4 32.4 12.4 31.6 12.4L26.5 12.4C25.7 12.4 25.2 13.2 25.6 13.9L28.1 18.1C28.8 19.4 29.8 19.4 30.6 19.4L35.7 19.4C36.5 19.4 37 18.5 36.6 17.9zM56.6 29.7L54.1 25.5 54.1 25.5C53.4 24.2 52.4 24.2 51.6 24.2L46.5 24.2C45.7 24.2 45.2 25 45.6 25.7L48.1 29.9C48.8 31.2 49.8 31.2 50.6 31.2L55.7 31.2C56.5 31.2 57 30.4 56.6 29.7zM43.5 29.7L41 25.5 41 25.5C40.3 24.2 39.3 24.2 38.5 24.2L33.4 24.2C32.6 24.2 32.1 25 32.5 25.7L35 29.9C35.7 31.2 36.7 31.2 37.5 31.2L42.6 31.2C43.4 31.2 43.9 30.4 43.5 29.7zM29.8 6.2L27.1 1.6 27.1 1.6 29.8 6.2C29.8 6.2 29.8 6.2 29.8 6.2zM58.2 25.8L58.4 26.1 58.2 25.8C58.2 25.8 58.2 25.8 58.2 25.8z"/>
        <path d="M70.4,30.9 L70.2,30.6 L67,25.1 C66.5,24.5 65.9,24.2 65.3,24.2 L59,24.2 C58.9,24.2 58.9,24.2 58.8,24.2 C58.2,24.4 57.8,25.1 58.2,25.8 L58.4,26.1 L61.5,31.6 C61.7,31.9 61.7,32.3 61.5,32.6 L50.2,51.3 C50,51.6 49.7,51.8 49.3,51.8 L24.7,51.8 C24.3,51.8 24,51.6 23.8,51.3 L9.9,27.6 C9.7,27.3 9.7,26.9 9.9,26.6 L21,8.5 C21.2,8.2 21.5,8 21.9,8 L23.2,8 L28.8,8 C29.6,8 30.1,7.1 29.8,6.4 L27.1,1.8 C26.3,0.4 25.3,0.4 24.4,0.4 L18.8,0.4 L17.5,0.4 C17.1,0.4 16.8,0.6 16.6,0.9 L1.5,25.6 C0.7,26.9 0.8,27.8 1.3,28.7 L18.7,58.5 C19.4,59.7 20.1,59.9 20.7,59.9 L21.3,59.9 L52.4,59.9 C53.9,59.9 54.4,59.6 55,58.5 L70.1,33.6 L70.1,33.6 C70.8,32.5 71,32 70.4,30.9 Z"/>
      </g>
    </g>
    <rect width="1.2" height="79.7" x="265.5" y=".3" fill="#232323" opacity=".5"/>
    <g fill="#232323" transform="translate(306 27)">
      <path d="M20.2,12.9 C20.2,16.9 19.1,20 16.8,22.1 C14.5,24.2 11.2,25.3 6.9,25.3 L5.68434189e-14,25.3 L5.68434189e-14,1 L7.6,1 C11.6,1 14.6,2 16.8,4.1 C19,6.2 20.2,9.2 20.2,12.9 Z M14.9,13.1 C14.9,7.9 12.6,5.3 8,5.3 L5.3,5.3 L5.3,21 L7.5,21 C12.4,21 14.9,18.4 14.9,13.1 Z"/>
      <polygon points="37.2 25.3 23.2 25.3 23.2 1 37.2 1 37.2 5.2 28.4 5.2 28.4 10.5 36.6 10.5 36.6 14.7 28.4 14.7 28.4 21 37.2 21"/>
      <path d="M54.1,1 L59.3,1 L51,25.3 L45.4,25.3 L37.2,1 L42.4,1 L47,15.4 C47.3,16.3 47.5,17.2 47.8,18.4 C48.1,19.5 48.2,20.3 48.3,20.8 C48.4,19.8 48.8,18 49.5,15.5 L54.1,1 Z"/>
      <polygon points="74.3 25.3 60.3 25.3 60.3 1 74.3 1 74.3 5.2 65.5 5.2 65.5 10.5 73.7 10.5 73.7 14.7 65.5 14.7 65.5 21 74.3 21"/>
      <polygon points="77.3 25.3 77.3 1 82.4 1 82.4 21 92.2 21 92.2 25.2 77.3 25.2"/>
      <path d="M116.5 13.1C116.5 17.1 115.5 20.2 113.5 22.4 111.5 24.6 108.7 25.6 104.9 25.6 101.1 25.6 98.3 24.5 96.3 22.4 94.3 20.3 93.3 17.1 93.3 13.1 93.3 9.1 94.3 6 96.3 3.8 98.3 1.7 101.2.6 104.9.6 108.6.6 111.5 1.7 113.5 3.8 115.5 6 116.5 9.1 116.5 13.1zM98.8 13.1C98.8 15.8 99.3 17.9 100.3 19.2 101.3 20.6 102.9 21.3 104.9 21.3 109 21.3 111.1 18.6 111.1 13.1 111.1 7.6 109.1 4.9 105 4.9 103 4.9 101.4 5.6 100.4 7 99.3 8.4 98.8 10.4 98.8 13.1zM136.2 8.6C136.2 11.2 135.4 13.2 133.8 14.6 132.2 16 129.8 16.7 126.8 16.7L124.6 16.7 124.6 25.3 119.5 25.3 119.5 1 127.3 1C130.2 1 132.5 1.6 134 2.9 135.5 4.2 136.2 6.1 136.2 8.6zM124.6 12.4L126.3 12.4C127.9 12.4 129.1 12.1 129.9 11.5 130.7 10.9 131.1 10 131.1 8.8 131.1 7.6 130.8 6.7 130.1 6.1 129.4 5.5 128.4 5.2 127 5.2L124.7 5.2 124.7 12.4 124.6 12.4z"/>
      <polygon points="152.8 25.3 138.8 25.3 138.8 1 152.8 1 152.8 5.2 144 5.2 144 10.5 152.2 10.5 152.2 14.7 144 14.7 144 21 152.8 21"/>
      <path d="M160.9,16 L160.9,25.3 L155.8,25.3 L155.8,1 L162.9,1 C166.2,1 168.6,1.6 170.2,2.8 C171.8,4 172.6,5.8 172.6,8.3 C172.6,9.7 172.2,11 171.4,12.1 C170.6,13.2 169.5,14.1 168.1,14.7 C171.8,20.2 174.1,23.7 175.2,25.3 L169.5,25.3 L163.7,16 L160.9,16 L160.9,16 Z M160.9,11.8 L162.6,11.8 C164.2,11.8 165.4,11.5 166.2,11 C167,10.5 167.4,9.6 167.4,8.4 C167.4,7.2 167,6.4 166.2,5.9 C165.4,5.4 164.2,5.2 162.5,5.2 L160.9,5.2 L160.9,11.8 Z"/>
      <path d="M190.5,18.6 C190.5,20.8 189.7,22.5 188.1,23.8 C186.5,25.1 184.3,25.7 181.5,25.7 C178.9,25.7 176.6,25.2 174.6,24.2 L174.6,19.4 C176.2,20.1 177.6,20.6 178.8,20.9 C179.9,21.2 181,21.3 181.9,21.3 C183,21.3 183.9,21.1 184.5,20.7 C185.1,20.3 185.4,19.6 185.4,18.8 C185.4,18.3 185.3,17.9 185,17.5 C184.7,17.1 184.3,16.8 183.8,16.4 C183.3,16.1 182.2,15.5 180.7,14.8 C179.2,14.1 178.1,13.4 177.4,12.8 C176.7,12.2 176.1,11.4 175.6,10.6 C175.2,9.7 174.9,8.8 174.9,7.6 C174.9,5.5 175.6,3.8 177.1,2.5 C178.6,1.3 180.6,0.7 183.1,0.7 C184.4,0.7 185.6,0.8 186.7,1.1 C187.8,1.4 189,1.8 190.3,2.4 L188.6,6.4 C187.3,5.9 186.2,5.5 185.4,5.3 C184.6,5.1 183.7,5 182.9,5 C181.9,5 181.2,5.2 180.7,5.7 C180.2,6.2 179.9,6.7 179.9,7.5 C179.9,8 180,8.3 180.2,8.7 C180.4,9.1 180.7,9.4 181.2,9.7 C181.7,10 182.7,10.6 184.5,11.4 C186.8,12.5 188.3,13.6 189.2,14.7 C190.1,15.8 190.5,17 190.5,18.6 Z"/>
    </g>
  </g>
</svg>
