<?xml version="1.0" encoding="utf-8"?>
<!-- Generator: Adobe Illustrator 20.1.0, SVG Export Plug-In . SVG Version: 6.00 Build 0)  -->
<svg version="1.1" xmlns="http://www.w3.org/2000/svg" xmlns:xlink="http://www.w3.org/1999/xlink" x="0px" y="0px"
	 viewBox="0 0 425.2 425.2" style="enable-background:new 0 0 425.2 425.2;" xml:space="preserve">
<style type="text/css">
	.st0{display:none;}
	.st1{display:inline;}
	.st2{fill:#FFFFFF;}
	.st3{display:inline;opacity:0.7;fill:none;stroke:#C13A2A;stroke-width:0.1;stroke-miterlimit:10;}
	.st4{display:inline;opacity:0.72;fill:none;stroke:#C13A2A;stroke-width:0.1;stroke-miterlimit:10;}
	.st5{display:inline;opacity:0.71;fill:#4AAD38;}
	.st6{fill:#4AAD38;}
	.st7{display:inline;fill:none;stroke:#4AAD38;stroke-width:0.1;stroke-miterlimit:10;}
	.st8{display:inline;fill:none;stroke:#4AAD38;stroke-width:9.415802e-02;stroke-miterlimit:10;}
</style>
<g id="Hintergrund" class="st0">
	<rect class="st1" width="425.2" height="425.2"/>
</g>
<g id="Ebene_1">
	<g>
		<path id="XMLID_109_" class="st2" d="M234.1,138.1l-7.7-13.1l0,0c-2.2-4.2-5.3-4.2-7.8-4.2h-15.9c-2.4,0-3.9,2.6-2.7,4.7l7.8,13.2
			c2.2,4,5.2,4.1,7.7,4.1h15.9C233.8,142.8,235.3,140.2,234.1,138.1z"/>
		<path id="XMLID_108_" class="st2" d="M275.5,138.1l-7.7-13.1l0,0c-2.2-4.2-5.3-4.2-7.8-4.2h-15.9c-2.4,0-3.9,2.6-2.7,4.7l7.8,13.2
			c2.2,4,5.2,4.1,7.7,4.1h15.9C275.2,142.8,276.7,140.2,275.5,138.1z"/>
		<path id="XMLID_107_" class="st2" d="M297,175l-7.7-13.1l0,0c-2.2-4.2-5.3-4.2-7.8-4.2h-15.9c-2.4,0-3.9,2.6-2.7,4.7l7.8,13.2
			c2.2,4,5.2,4.1,7.7,4.1h15.9C296.7,179.7,298.2,177.1,297,175z"/>
		<path id="XMLID_106_" class="st2" d="M255.6,175l-7.7-13.1l0,0c-2.2-4.2-5.3-4.2-7.8-4.2h-15.9c-2.4,0-3.9,2.6-2.7,4.7l7.8,13.2
			c2.2,4,5.2,4.1,7.7,4.1h15.9C255.3,179.7,256.8,177.1,255.6,175z"/>
		<path id="XMLID_105_" class="st2" d="M214.8,175l-7.7-13.1l0,0c-2.2-4.2-5.3-4.2-7.8-4.2h-15.9c-2.4,0-3.9,2.6-2.7,4.7l7.8,13.2
			c2.2,4,5.2,4.1,7.7,4.1h15.9C214.5,179.7,216,177.1,214.8,175z"/>
		<path id="XMLID_104_" class="st2" d="M277.1,211.9l-7.7-13.1l0,0c-2.2-4.2-5.3-4.2-7.8-4.2h-15.9c-2.4,0-3.9,2.6-2.7,4.7l7.8,13.2
			c2.2,4,5.2,4.1,7.7,4.1h15.9C276.8,216.6,278.3,214,277.1,211.9z"/>
		<path id="XMLID_103_" class="st2" d="M236.3,211.9l-7.7-13.1l0,0c-2.2-4.2-5.3-4.2-7.8-4.2h-15.9c-2.4,0-3.9,2.6-2.7,4.7l7.8,13.2
			c2.2,4,5.2,4.1,7.7,4.1h15.9C236,216.6,237.5,214,236.3,211.9z"/>
		<path id="XMLID_102_" class="st2" d="M193.7,138.7l-8.4-14.3c0,0-0.1-0.1-0.1-0.1L193.7,138.7
			C193.7,138.8,193.7,138.7,193.7,138.7z"/>
		<path id="XMLID_101_" class="st2" d="M282.1,199.8l0.5,0.9L282.1,199.8C282.1,199.7,282.1,199.7,282.1,199.8z"/>
		<path id="XMLID_100_" class="st2" d="M320.3,215.6l-0.5-0.9l-9.9-17.1c-1.6-2-3.4-2.7-5.2-2.9h-20.1c-0.2,0-0.4,0-0.6,0.1
			c-1.9,0.6-3,2.9-1.9,4.9l0.6,1l9.8,17.1c0.6,1,0.5,2.2,0,3.2l-35.2,58.3c-0.6,0.9-1.6,1.5-2.7,1.5H178c-1.1,0-2.1-0.6-2.7-1.5
			l-43.2-74c-0.6-1-0.6-2.2,0-3.2l34.6-56.6c0.6-0.9,1.6-1.5,2.7-1.5h4h17.4c2.6,0,4.2-2.8,3-5.1l-8.5-14.5
			c-2.4-4.5-5.7-4.5-8.5-4.5h-17.4h-4.1c-1.1,0-2.1,0.6-2.7,1.5l-47.1,77c-2.5,4.2-2.3,6.8-0.5,9.8l54.3,92.8
			c2.2,3.7,4.4,4.4,6.3,4.5h2h97c4.8,0,6.1-1,8.2-4.3l47.1-77.8l0,0C321.6,220.6,322.2,219,320.3,215.6z"/>
	</g>
</g>
<g id="Ebene_4" class="st0">
</g>
<g id="Ebene_3" class="st0">
</g>
</svg>
