<?xml version="1.0" encoding="utf-8"?>
<!-- Generator: Adobe Illustrator 20.1.0, SVG Export Plug-In . SVG Version: 6.00 Build 0)  -->
<svg version="1.1" xmlns="http://www.w3.org/2000/svg" xmlns:xlink="http://www.w3.org/1999/xlink" x="0px" y="0px"
	 viewBox="0 0 425.2 425.2" style="enable-background:new 0 0 425.2 425.2;" xml:space="preserve">
<style type="text/css">
	.st0{display:none;}
	.st1{display:inline;}
	.st2{fill:#FFFFFF;}
	.st3{display:inline;opacity:0.7;fill:none;stroke:#C13A2A;stroke-width:0.1;stroke-miterlimit:10;}
	.st4{display:inline;opacity:0.72;fill:none;stroke:#C13A2A;stroke-width:0.1;stroke-miterlimit:10;}
	.st5{display:inline;opacity:0.71;fill:#4AAD38;}
	.st6{fill:#4AAD38;}
	.st7{display:inline;fill:none;stroke:#4AAD38;stroke-width:0.1;stroke-miterlimit:10;}
	.st8{display:inline;fill:none;stroke:#4AAD38;stroke-width:9.415802e-02;stroke-miterlimit:10;}
</style>
<g id="Hintergrund" class="st0">
</g>
<g id="Ebene_1">
	<g>
		<path id="XMLID_120_" d="M234.1,138.1l-7.7-13.1l0,0c-2.2-4.2-5.3-4.2-7.8-4.2h-15.9c-2.4,0-3.9,2.6-2.7,4.7l7.8,13.2
			c2.2,4,5.2,4.1,7.7,4.1h15.9C233.8,142.8,235.3,140.2,234.1,138.1z"/>
		<path id="XMLID_119_" d="M275.5,138.1l-7.7-13.1l0,0c-2.2-4.2-5.3-4.2-7.8-4.2h-15.9c-2.4,0-3.9,2.6-2.7,4.7l7.8,13.2
			c2.2,4,5.2,4.1,7.7,4.1h15.9C275.2,142.8,276.7,140.2,275.5,138.1z"/>
		<path id="XMLID_118_" d="M297,175l-7.7-13.1l0,0c-2.2-4.2-5.3-4.2-7.8-4.2h-15.9c-2.4,0-3.9,2.6-2.7,4.7l7.8,13.2
			c2.2,4,5.2,4.1,7.7,4.1h15.9C296.7,179.7,298.2,177.1,297,175z"/>
		<path id="XMLID_117_" d="M255.6,175l-7.7-13.1l0,0c-2.2-4.2-5.3-4.2-7.8-4.2h-15.9c-2.4,0-3.9,2.6-2.7,4.7l7.8,13.2
			c2.2,4,5.2,4.1,7.7,4.1h15.9C255.3,179.7,256.8,177.1,255.6,175z"/>
		<path id="XMLID_116_" d="M214.8,175l-7.7-13.1l0,0c-2.2-4.2-5.3-4.2-7.8-4.2h-15.9c-2.4,0-3.9,2.6-2.7,4.7l7.8,13.2
			c2.2,4,5.2,4.1,7.7,4.1h15.9C214.5,179.7,216,177.1,214.8,175z"/>
		<path id="XMLID_115_" d="M277.1,211.9l-7.7-13.1l0,0c-2.2-4.2-5.3-4.2-7.8-4.2h-15.9c-2.4,0-3.9,2.6-2.7,4.7l7.8,13.2
			c2.2,4,5.2,4.1,7.7,4.1h15.9C276.8,216.6,278.3,214,277.1,211.9z"/>
		<path id="XMLID_114_" d="M236.3,211.9l-7.7-13.1l0,0c-2.2-4.2-5.3-4.2-7.8-4.2h-15.9c-2.4,0-3.9,2.6-2.7,4.7l7.8,13.2
			c2.2,4,5.2,4.1,7.7,4.1h15.9C236,216.6,237.5,214,236.3,211.9z"/>
		<path id="XMLID_113_" d="M193.7,138.7l-8.4-14.3c0,0-0.1-0.1-0.1-0.1L193.7,138.7C193.7,138.8,193.7,138.7,193.7,138.7z"/>
		<path id="XMLID_112_" d="M282.1,199.8l0.5,0.9L282.1,199.8C282.1,199.7,282.1,199.7,282.1,199.8z"/>
		<path id="XMLID_111_" d="M320.3,215.6l-0.5-0.9l-9.9-17.1c-1.6-2-3.4-2.7-5.2-2.9h-20.1c-0.2,0-0.4,0-0.6,0.1
			c-1.9,0.6-3,2.9-1.9,4.9l0.6,1l9.8,17.1c0.6,1,0.5,2.2,0,3.2l-35.2,58.3c-0.6,0.9-1.6,1.5-2.7,1.5H178c-1.1,0-2.1-0.6-2.7-1.5
			l-43.2-74c-0.6-1-0.6-2.2,0-3.2l34.6-56.6c0.6-0.9,1.6-1.5,2.7-1.5h4h17.4c2.6,0,4.2-2.8,3-5.1l-8.5-14.5
			c-2.4-4.5-5.7-4.5-8.5-4.5h-17.4h-4.1c-1.1,0-2.1,0.6-2.7,1.5l-47.1,77c-2.5,4.2-2.3,6.8-0.5,9.8l54.3,92.8
			c2.2,3.7,4.4,4.4,6.3,4.5h2h97c4.8,0,6.1-1,8.2-4.3l47.1-77.8l0,0C321.6,220.6,322.2,219,320.3,215.6z"/>
	</g>
</g>
<g id="Ebene_4" class="st0">
	<line class="st3" x1="246.3" y1="87.4" x2="331.3" y2="234.7"/>
	<line class="st3" x1="219.6" y1="91.6" x2="304.6" y2="238.9"/>
	<line class="st3" x1="180.3" y1="93" x2="265.3" y2="240.3"/>
	<line class="st3" x1="134.2" y1="81.5" x2="219.2" y2="228.8"/>
	<line class="st3" x1="166.2" y1="91.4" x2="251.2" y2="238.7"/>
	<line class="st3" x1="199" y1="78.5" x2="284" y2="225.8"/>
	<line class="st4" x1="130.4" y1="119.8" x2="300.4" y2="119.8"/>
	<line class="st4" x1="123.5" y1="143.9" x2="293.6" y2="143.9"/>
	<line class="st4" x1="163.5" y1="194.7" x2="333.5" y2="194.7"/>
	<line class="st4" x1="151.4" y1="180.7" x2="321.5" y2="180.7"/>
	<line class="st4" x1="149.4" y1="158.3" x2="319.4" y2="158.3"/>
	<line class="st4" x1="183.6" y1="216.6" x2="353.6" y2="216.6"/>
</g>
<g id="Ebene_3" class="st0">
	<path class="st5" d="M177.2,143.8h-12.6c-2.2,0-3.9-1.7-3.9-3.9v-16.2c0-2.2,1.7-3.9,3.9-3.9h12.6c2.2,0,3.9,1.7,3.9,3.9v16.2
		C181.1,142.1,179.4,143.8,177.2,143.8z"/>
	<g class="st1">
		<rect x="186.3" y="143.9" class="st6" width="4" height="14.3"/>
	</g>
	<g class="st1">
		<rect x="243.8" y="180.4" class="st6" width="3.9" height="14.3"/>
	</g>
	<line class="st7" x1="188.5" y1="130.1" x2="201.8" y2="130.1"/>
	<line class="st7" x1="228.7" y1="130.1" x2="242" y2="130.1"/>
	<line class="st7" x1="211.2" y1="169.1" x2="224.5" y2="169.1"/>
	<line class="st7" x1="251.3" y1="169.1" x2="264.6" y2="169.1"/>
</g>
</svg>
