<?xml version="1.0" encoding="utf-8"?>
<!-- Generator: Adobe Illustrator 20.1.0, SVG Export Plug-In . SVG Version: 6.00 Build 0)  -->
<svg version="1.1" xmlns="http://www.w3.org/2000/svg" xmlns:xlink="http://www.w3.org/1999/xlink" x="0px" y="0px"
	 viewBox="0 0 841.9 425.2" style="enable-background:new 0 0 841.9 425.2;" xml:space="preserve">
<style type="text/css">
	.st0{display:none;}
	.st1{display:inline;}
	.st2{fill:#FFFFFF;}
	.st3{display:inline;opacity:0.7;fill:none;stroke:#C13A2A;stroke-width:0.1;stroke-miterlimit:10;}
	.st4{display:inline;opacity:0.72;fill:none;stroke:#C13A2A;stroke-width:0.1;stroke-miterlimit:10;}
	.st5{display:inline;opacity:0.71;fill:#4AAD38;}
	.st6{fill:#4AAD38;}
	.st7{display:inline;fill:none;stroke:#4AAD38;stroke-width:0.1;stroke-miterlimit:10;}
	.st8{display:inline;fill:none;stroke:#4AAD38;stroke-width:9.415802e-02;stroke-miterlimit:10;}
</style>
<g id="Hintergrund" class="st0">
	<rect x="0" y="0" class="st1" width="841.9" height="425.2"/>
</g>
<g id="Ebene_1">
	<g>
		<path id="XMLID_86_" class="st2" d="M314.8,246.4l-4.2-13.6c-0.3-1-1.2-1.6-2.2-1.6h-25.2c-1,0-1.9,0.7-2.2,1.6l-4.2,13.6
			c-0.6,2-2.5,3.4-4.6,3.4h-11.2c-1.5,0-2.6-1.5-2.1-2.9l26.1-74.1c0.4-1,1.3-1.7,2.4-1.7h16.8c1.1,0,2,0.7,2.4,1.7l26.2,74.1
			c0.5,1.4-0.6,2.9-2.1,2.9h-11.2C317.3,249.8,315.5,248.4,314.8,246.4z M305.1,217.2c0.6,0,1-0.6,0.8-1.1
			c-5-16.2-7.9-25.4-8.5-27.6c-0.2-0.6-0.3-1.1-0.5-1.6c-0.3-1-1.7-1-2,0c-1.6,5.7-4.6,15.4-8.8,29.2c-0.2,0.5,0.2,1.1,0.8,1.1
			L305.1,217.2z"/>
		<path id="XMLID_84_" class="st2" d="M354.4,249.8h-11.8c-1.3,0-2.3-1-2.3-2.3v-78.9c0-1.3,1-2.3,2.3-2.3h11.8c1.3,0,2.3,1,2.3,2.3
			v78.9C356.7,248.8,355.6,249.8,354.4,249.8z"/>
		<path id="XMLID_82_" class="st2" d="M387.9,249.8h-11.8c-1.3,0-2.3-1-2.3-2.3v-78.9c0-1.3,1-2.3,2.3-2.3h11.8c1.3,0,2.3,1,2.3,2.3
			v78.9C390.2,248.8,389.2,249.8,387.9,249.8z"/>
		<path id="XMLID_80_" class="st2" d="M432.2,237.8c2.2,0,4.7-0.4,7.5-1.1c1.4-0.4,2.8,0.7,2.8,2.2l0,7.7c0,0.9-0.6,1.8-1.5,2.1
			c-3.8,1.4-8.3,2.1-13.6,2.1c-6.5,0-11.3-1.7-14.3-5c-3-3.3-4.5-8.3-4.5-14.9v-26.7c0-1.2-1-2.3-2.3-2.3h-3.3c-1.2,0-2.3-1-2.3-2.3
			v-3.4c0-0.8,0.4-1.5,1.1-1.9l0,0c5.1-3.1,9.1-7.9,11.2-13.5l0.9-2.5c0.3-0.9,1.2-1.5,2.1-1.5h6.6c1.2,0,2.3,1,2.3,2.3v8.3
			c0,1.2,1,2.3,2.3,2.3h12.3c1.2,0,2.3,1,2.3,2.3v7.8c0,1.2-1,2.3-2.3,2.3h-12.3c-1.2,0-2.3,1-2.3,2.3V231c0,2.3,0.7,4,2,5.2
			C428.3,237.3,430,237.8,432.2,237.8z"/>
		<path id="XMLID_78_" class="st2" d="M506.1,249.8h-11.8c-1.3,0-2.3-1-2.3-2.3v-32.7c0-8.7-3.2-13-9.7-13c-4.6,0-7.9,1.6-9.9,4.7
			c-2,3.1-3.1,8.2-3.1,15.1v25.9c0,1.3-1,2.3-2.3,2.3h-11.8c-1.3,0-2.3-1-2.3-2.3v-78.9c0-1.3,1-2.3,2.3-2.3h11.8
			c1.3,0,2.3,1,2.3,2.3v14.7c0,1.3-0.1,4.4-0.4,9.3l-0.1,1.9l0,0.2c0,1.1,1.4,1.6,2.1,0.7c0,0,0,0,0,0c3.7-4.5,9-6.7,15.9-6.7
			c7,0,12.4,1.9,16,5.7c3.6,3.8,5.5,9.2,5.5,16.3v36.8C508.4,248.8,507.4,249.8,506.1,249.8z"/>
		<path id="XMLID_75_" class="st2" d="M522.4,174.3c0-5.3,3-8,8.9-8s8.9,2.7,8.9,8c0,2.5-0.7,4.5-2.2,5.9c-1.5,1.4-3.7,2.1-6.7,2.1
			C525.4,182.3,522.4,179.7,522.4,174.3z M537.1,249.8h-11.6c-1.3,0-2.4-1.1-2.4-2.4v-55.2c0-1.3,1.1-2.4,2.4-2.4h11.6
			c1.3,0,2.4,1.1,2.4,2.4v55.2C539.5,248.7,538.4,249.8,537.1,249.8z"/>
		<path id="XMLID_73_" class="st2" d="M608.2,249.8h-11.8c-1.3,0-2.3-1-2.3-2.3v-32.7c0-4.3-0.8-7.6-2.3-9.7c-1.5-2.2-4-3.2-7.3-3.2
			c-4.6,0-7.9,1.5-9.9,4.6c-2,3.1-3.1,8.1-3.1,15.2v25.9c0,1.3-1,2.3-2.3,2.3h-11.8c-1.3,0-2.3-1-2.3-2.3v-55.4c0-1.3,1-2.3,2.3-2.3
			h8.5c1,0,1.9,0.7,2.2,1.7l1.3,4.5l0,0.1c0.3,0.9,1.4,1.1,2,0.4c0,0,0.1-0.1,0.1-0.1c1.7-2.3,4-4.2,6.8-5.5
			c3.2-1.5,6.8-2.2,10.9-2.2c7,0,12.3,1.9,15.9,5.7c3.6,3.8,5.4,9.2,5.4,16.3v36.8C610.5,248.8,609.4,249.8,608.2,249.8z"/>
		<path id="XMLID_70_" class="st2" d="M677,249.9c0,8.6-2.5,15.2-7.5,19.6c-5,4.5-12.5,6.7-22.5,6.7c-8,0-14.9-1-20.8-3
			c-1-0.3-1.6-1.2-1.6-2.3V263c0-1.6,1.6-2.8,3.1-2.3c6.4,2.3,13.1,3.4,20.2,3.4c8.4,0,12.6-4.5,12.6-13.6v-1.1c0-0.1,0-0.1,0-0.2
			l0.3-3.9l0-0.1c0-1.1-1.4-1.7-2.1-0.8c0,0,0,0,0,0c-3.7,4.3-8.8,6.4-15.2,6.4c-7.2,0-12.8-2.8-16.7-8.3c-4-5.5-5.9-13.1-5.9-22.6
			c0-9.8,2-17.5,6.1-23c4.1-5.5,9.7-8.2,16.9-8.2c6.7,0,12,2.4,16.1,7.2l0.1,0.1c0.6,0.7,1.8,0.4,2-0.5l0-0.1l0.6-3.5
			c0.2-1.1,1.2-2,2.3-2h9.5c1.3,0,2.4,1.1,2.4,2.4V249.9z M649.4,238c4.4,0,7.5-1.3,9.4-3.8c1.9-2.5,2.8-6.6,2.8-12.3v-2
			c0-6.4-1-11-3-13.8c-2-2.8-5.2-4.2-9.6-4.2c-7.7,0-11.5,6-11.5,18.1c0,6,1,10.5,2.9,13.5C642.4,236.6,645.3,238,649.4,238z"/>
		<path id="XMLID_68_" class="st2" d="M733.8,232c0,6.2-2.1,10.8-6.4,14.1c-4.3,3.2-10.7,4.8-19.2,4.8c-4.4,0-8.1-0.3-11.2-0.9
			c-2.5-0.5-4.8-1.1-7.1-2c-0.9-0.4-1.6-1.2-1.6-2.2v-8.3c0-1.7,1.7-2.8,3.2-2.2c2.2,0.8,4.5,1.6,7.1,2.2c3.8,1,7.2,1.4,10.1,1.4
			c5.9,0,8.9-1.7,8.9-5.1c0-1.3-0.4-2.3-1.2-3.1c-0.8-0.8-2.1-1.7-4.1-2.7c-1.9-1-4.5-2.2-7.7-3.6c-4.6-1.9-8-3.7-10.2-5.4
			s-3.7-3.5-4.7-5.7c-1-2.1-1.5-4.7-1.5-7.9c0-5.3,2.1-9.5,6.2-12.4c4.1-2.9,10-4.4,17.6-4.4c6.5,0,12.8,1.3,18.9,3.8
			c1.2,0.5,1.8,1.9,1.3,3.1l-3.1,7.5c-0.5,1.2-1.9,1.8-3.1,1.3c-2.2-0.9-4.3-1.6-6.3-2.3c-2.6-0.8-5.3-1.2-8-1.2
			c-4.8,0-7.2,1.3-7.2,3.9c0,1.5,0.8,2.7,2.3,3.8s5,2.7,10.2,4.8c4.7,1.9,8.1,3.7,10.3,5.3c2.2,1.6,3.8,3.5,4.8,5.7
			C733.3,226.4,733.8,229,733.8,232z"/>
	</g>
	<g>
		<path id="XMLID_146_" class="st2" d="M175.9,157.6l-5-8.4l0,0c-1.4-2.7-3.4-2.7-5.1-2.7h-10.3c-1.6,0-2.5,1.7-1.7,3l5,8.5
			c1.4,2.6,3.4,2.6,5,2.6h10.3C175.7,160.7,176.6,159,175.9,157.6z"/>
		<path id="XMLID_145_" class="st2" d="M202.6,157.6l-5-8.4l0,0c-1.4-2.7-3.4-2.7-5.1-2.7h-10.3c-1.6,0-2.5,1.7-1.7,3l5,8.5
			c1.4,2.6,3.4,2.6,5,2.6h10.3C202.4,160.7,203.4,159,202.6,157.6z"/>
		<path id="XMLID_144_" class="st2" d="M216.5,181.5l-5-8.4l0,0c-1.4-2.7-3.4-2.7-5.1-2.7h-10.3c-1.6,0-2.5,1.7-1.7,3l5,8.5
			c1.4,2.6,3.4,2.6,5,2.6h10.3C216.3,184.5,217.3,182.8,216.5,181.5z"/>
		<path id="XMLID_143_" class="st2" d="M189.8,181.5l-5-8.4l0,0c-1.4-2.7-3.4-2.7-5.1-2.7h-10.3c-1.6,0-2.5,1.7-1.7,3l5,8.5
			c1.4,2.6,3.4,2.6,5,2.6H188C189.6,184.5,190.6,182.8,189.8,181.5z"/>
		<path id="XMLID_142_" class="st2" d="M163.4,181.5l-5-8.4l0,0c-1.4-2.7-3.4-2.7-5.1-2.7h-10.3c-1.6,0-2.5,1.7-1.7,3l5,8.5
			c1.4,2.6,3.4,2.6,5,2.6h10.3C163.2,184.5,164.2,182.8,163.4,181.5z"/>
		<path id="XMLID_141_" class="st2" d="M203.6,205.3l-5-8.4l0,0c-1.4-2.7-3.4-2.7-5.1-2.7h-10.3c-1.6,0-2.5,1.7-1.7,3l5,8.5
			c1.4,2.6,3.4,2.6,5,2.6h10.3C203.5,208.3,204.4,206.6,203.6,205.3z"/>
		<path id="XMLID_140_" class="st2" d="M177.3,205.3l-5-8.4l0,0c-1.4-2.7-3.4-2.7-5.1-2.7H157c-1.6,0-2.5,1.7-1.7,3l5,8.5
			c1.4,2.6,3.4,2.6,5,2.6h10.3C177.1,208.3,178.1,206.6,177.3,205.3z"/>
		<path id="XMLID_139_" class="st2" d="M149.8,158l-5.4-9.2c0,0,0,0,0-0.1L149.8,158C149.8,158,149.8,158,149.8,158z"/>
		<path id="XMLID_138_" class="st2" d="M206.9,197.4l0.3,0.6L206.9,197.4C206.9,197.4,206.9,197.4,206.9,197.4z"/>
		<path id="XMLID_137_" class="st2" d="M231.5,207.7l-0.3-0.6l-6.4-11.1c-1-1.3-2.2-1.7-3.3-1.9h-13c-0.1,0-0.3,0-0.4,0.1
			c-1.3,0.4-1.9,1.9-1.2,3.1l0.4,0.6l6.3,11c0.4,0.6,0.4,1.4,0,2l-22.7,37.6c-0.4,0.6-1,1-1.7,1h-49.4c-0.7,0-1.4-0.4-1.7-1
			l-27.9-47.7c-0.4-0.6-0.4-1.4,0-2.1l22.3-36.5c0.4-0.6,1-1,1.7-1h2.6h11.2c1.7,0,2.7-1.8,1.9-3.3l-5.5-9.3
			c-1.5-2.9-3.7-2.9-5.5-2.9h-11.2H125c-0.7,0-1.4,0.4-1.7,1l-30.4,49.7c-1.6,2.7-1.5,4.4-0.3,6.3l35,59.9c1.4,2.4,2.8,2.9,4.1,2.9
			h1.3h62.6c3.1,0,3.9-0.7,5.3-2.8l30.4-50.2l0,0C232.3,210.9,232.8,209.8,231.5,207.7z"/>
	</g>
</g>
<g id="Ebene_4" class="st0">
</g>
<g id="Ebene_3" class="st0">
</g>
</svg>
